<svg width="1152" height="307" viewBox="0 0 1152 307" fill="none" xmlns="http://www.w3.org/2000/svg">
<path d="M126.2 234.6C139.2 234.6 151.6 229.6 161.4 220.8L153.4 208.6C146.6 214.8 137.8 219.4 127.8 219.4C107.8 219.4 94.2 202.8 94.2 177.8C94.2 152.8 108.6 135.8 128.4 135.8C137 135.8 143.6 139.8 150 145.4L159.4 133.4C151.6 126.6 141.8 120.6 127.6 120.6C99.8 120.6 75.2 141.6 75.2 177.8C75.2 213.8 97.4 234.6 126.2 234.6ZM222.475 234.6C249.075 234.6 272.875 213.8 272.875 177.8C272.875 141.6 249.075 120.6 222.475 120.6C195.875 120.6 172.075 141.6 172.075 177.8C172.075 213.8 195.875 234.6 222.475 234.6ZM222.475 219.4C203.675 219.4 191.075 202.8 191.075 177.8C191.075 152.8 203.675 135.8 222.475 135.8C241.275 135.8 254.075 152.8 254.075 177.8C254.075 202.8 241.275 219.4 222.475 219.4ZM338.564 234.6C351.564 234.6 362.964 227.6 371.564 219.2H372.164L373.764 232H388.564V72.8H370.564V114.6L371.364 133.4C361.764 125.4 353.564 120.6 340.764 120.6C315.964 120.6 293.764 142.6 293.764 177.8C293.764 214 311.364 234.6 338.564 234.6ZM342.564 219.4C323.364 219.4 312.564 203.8 312.564 177.6C312.564 152.8 326.364 136 343.964 136C352.964 136 361.164 139.2 370.564 147.4V204.4C361.364 214.4 352.564 219.4 342.564 219.4ZM469.388 234.6C484.188 234.6 495.788 229.6 505.388 223.4L498.788 211.4C490.788 216.8 482.188 220 471.588 220C450.988 220 436.788 205.2 435.588 182H508.788C509.188 179.4 509.588 175.6 509.588 171.6C509.588 140.6 493.988 120.6 466.388 120.6C441.188 120.6 417.388 142.6 417.388 177.8C417.388 213.6 440.588 234.6 469.388 234.6ZM435.388 168.8C437.588 147.6 451.188 135.2 466.588 135.2C483.588 135.2 493.588 147 493.588 168.8H435.388ZM625.783 232H643.983V153.2C653.983 142 663.183 136.6 671.383 136.6C685.183 136.6 691.583 145.2 691.583 165.6V232H709.783V153.2C719.983 142 728.783 136.6 737.183 136.6C750.983 136.6 757.383 145.2 757.383 165.6V232H775.583V163.2C775.583 135.4 764.983 120.6 742.583 120.6C729.383 120.6 717.983 129.2 706.783 141.4C702.383 128.6 693.383 120.6 676.783 120.6C663.783 120.6 652.383 128.8 642.983 139.2H642.383L640.783 123.4H625.783V232ZM853.139 234.6C879.739 234.6 903.539 213.8 903.539 177.8C903.539 141.6 879.739 120.6 853.139 120.6C826.539 120.6 802.739 141.6 802.739 177.8C802.739 213.8 826.539 234.6 853.139 234.6ZM853.139 219.4C834.339 219.4 821.739 202.8 821.739 177.8C821.739 152.8 834.339 135.8 853.139 135.8C871.939 135.8 884.739 152.8 884.739 177.8C884.739 202.8 871.939 219.4 853.139 219.4ZM932.228 232H950.428V162.2C957.628 143.6 968.828 137.2 977.828 137.2C982.228 137.2 984.828 137.6 988.428 139L991.828 123C988.428 121.2 985.028 120.6 980.228 120.6C968.028 120.6 957.028 129.4 949.428 143.2H948.828L947.228 123.4H932.228V232ZM1051.42 234.6C1066.22 234.6 1077.82 229.6 1087.42 223.4L1080.82 211.4C1072.82 216.8 1064.22 220 1053.62 220C1033.02 220 1018.82 205.2 1017.62 182H1090.82C1091.22 179.4 1091.62 175.6 1091.62 171.6C1091.62 140.6 1076.02 120.6 1048.42 120.6C1023.22 120.6 999.419 142.6 999.419 177.8C999.419 213.6 1022.62 234.6 1051.42 234.6ZM1017.42 168.8C1019.62 147.6 1033.22 135.2 1048.62 135.2C1065.62 135.2 1075.62 147 1075.62 168.8H1017.42Z" fill="black"/>
<path d="M85 43.625L79.5439 27C21.5372 44.2083 29.8649 89.7083 29.8649 124.417C29.8649 152.421 9.85923 157.861 0 156.792V167H31.875C54.2736 155.917 55.7094 132.583 55.7094 119.167C55.7094 105.75 55.2104 100.331 55.7094 92.625C56.8581 56.4583 74.375 46.8333 85 43.625Z" fill="#22C2FF"/>
<path d="M85 290.375L79.5439 307C21.5372 289.792 29.8649 244.292 29.8649 209.583C29.8649 181.579 9.85923 176.139 0 177.208V167H31.875C54.2736 178.083 55.7094 201.417 55.7094 214.833C55.7094 228.25 55.2104 233.669 55.7094 241.375C56.8581 277.542 74.375 287.167 85 290.375Z" fill="#00ACEE"/>
<path d="M514 290.375L519.456 307C577.463 289.792 569.135 244.292 569.135 209.583C569.135 181.579 589.141 176.139 599 177.208V167H567.125C544.726 178.083 543.291 201.417 543.291 214.833C543.291 228.25 543.79 233.669 543.291 241.375C542.142 277.542 524.625 287.167 514 290.375Z" fill="#22C2FF"/>
<path d="M514 43.625L519.456 27C577.463 44.2083 569.135 89.7083 569.135 124.417C569.135 152.421 589.141 157.861 599 156.792V167H567.125C544.726 155.917 543.291 132.583 543.291 119.167C543.291 105.75 543.79 100.331 543.291 92.625C542.142 56.4583 524.625 46.8333 514 43.625Z" fill="#00ACEE"/>
</svg>
