<svg width="184" height="48" viewBox="0 0 184 48" fill="none" xmlns="http://www.w3.org/2000/svg">
<path d="M20.1573 35.0804C22.2337 35.0804 24.2143 34.3327 25.7795 33.0168L24.5018 31.1925C23.4156 32.1196 22.0101 32.8075 20.4129 32.8075C17.2184 32.8075 15.0462 30.3252 15.0462 26.5869C15.0462 22.8486 17.3462 20.3065 20.5087 20.3065C21.8823 20.3065 22.9365 20.9047 23.9587 21.7421L25.4601 19.9477C24.2143 18.9308 22.649 18.0336 20.3809 18.0336C15.9406 18.0336 12.0115 21.1738 12.0115 26.5869C12.0115 31.9701 15.5573 35.0804 20.1573 35.0804ZM35.5346 35.0804C39.7832 35.0804 43.5846 31.9701 43.5846 26.5869C43.5846 21.1738 39.7832 18.0336 35.5346 18.0336C31.286 18.0336 27.4846 21.1738 27.4846 26.5869C27.4846 31.9701 31.286 35.0804 35.5346 35.0804ZM35.5346 32.8075C32.5318 32.8075 30.5193 30.3252 30.5193 26.5869C30.5193 22.8486 32.5318 20.3065 35.5346 20.3065C38.5373 20.3065 40.5818 22.8486 40.5818 26.5869C40.5818 30.3252 38.5373 32.8075 35.5346 32.8075ZM54.0766 35.0804C56.1529 35.0804 57.9738 34.0336 59.3474 32.7776H59.4432L59.6988 34.6916H62.0627V10.886H59.1877V17.1365L59.3154 19.9477C57.7821 18.7514 56.4724 18.0336 54.4279 18.0336C50.4668 18.0336 46.921 21.3234 46.921 26.5869C46.921 32 49.7321 35.0804 54.0766 35.0804ZM54.7154 32.8075C51.6488 32.8075 49.9238 30.4748 49.9238 26.557C49.9238 22.8486 52.1279 20.3365 54.9391 20.3365C56.3766 20.3365 57.6863 20.815 59.1877 22.0411V30.5645C57.7182 32.0598 56.3127 32.8075 54.7154 32.8075ZM74.9721 35.0804C77.3359 35.0804 79.1887 34.3327 80.7221 33.4056L79.6679 31.6112C78.3901 32.4187 77.0165 32.8972 75.3234 32.8972C72.0332 32.8972 69.7651 30.6841 69.5734 27.215H81.2651C81.329 26.8262 81.3929 26.2579 81.3929 25.6598C81.3929 21.0243 78.9012 18.0336 74.4929 18.0336C70.4679 18.0336 66.6665 21.3234 66.6665 26.5869C66.6665 31.9402 70.3721 35.0804 74.9721 35.0804ZM69.5415 25.2411C69.8929 22.071 72.0651 20.2168 74.5248 20.2168C77.2401 20.2168 78.8373 21.9813 78.8373 25.2411H69.5415ZM99.9518 34.6916H102.859V22.9084C104.456 21.2336 105.925 20.4262 107.235 20.4262C109.439 20.4262 110.462 21.7122 110.462 24.7626V34.6916H113.368V22.9084C114.998 21.2336 116.403 20.4262 117.745 20.4262C119.949 20.4262 120.971 21.7122 120.971 24.7626V34.6916H123.878V24.4037C123.878 20.2467 122.185 18.0336 118.607 18.0336C116.499 18.0336 114.678 19.3196 112.889 21.1439C112.187 19.2299 110.749 18.0336 108.098 18.0336C106.021 18.0336 104.2 19.2598 102.699 20.815H102.603L102.348 18.4523H99.9518V34.6916ZM136.266 35.0804C140.514 35.0804 144.316 31.9701 144.316 26.5869C144.316 21.1738 140.514 18.0336 136.266 18.0336C132.017 18.0336 128.216 21.1738 128.216 26.5869C128.216 31.9701 132.017 35.0804 136.266 35.0804ZM136.266 32.8075C133.263 32.8075 131.25 30.3252 131.25 26.5869C131.25 22.8486 133.263 20.3065 136.266 20.3065C139.268 20.3065 141.313 22.8486 141.313 26.5869C141.313 30.3252 139.268 32.8075 136.266 32.8075ZM148.898 34.6916H151.805V24.2542C152.955 21.4729 154.744 20.5159 156.181 20.5159C156.884 20.5159 157.299 20.5757 157.874 20.785L158.417 18.3925C157.874 18.1234 157.331 18.0336 156.565 18.0336C154.616 18.0336 152.859 19.3495 151.645 21.4131H151.549L151.294 18.4523H148.898V34.6916ZM167.935 35.0804C170.299 35.0804 172.152 34.3327 173.685 33.4056L172.631 31.6112C171.354 32.4187 169.98 32.8972 168.287 32.8972C164.997 32.8972 162.729 30.6841 162.537 27.215H174.229C174.292 26.8262 174.356 26.2579 174.356 25.6598C174.356 21.0243 171.865 18.0336 167.456 18.0336C163.431 18.0336 159.63 21.3234 159.63 26.5869C159.63 31.9402 163.335 35.0804 167.935 35.0804ZM162.505 25.2411C162.856 22.071 165.029 20.2168 167.488 20.2168C170.204 20.2168 171.801 21.9813 171.801 25.2411H162.505Z" fill="black"/>
<path d="M13.5764 6.52333L12.7049 4.03735C3.43997 6.61056 4.77009 13.4143 4.77009 18.6044C4.77009 22.7919 1.57474 23.6053 0 23.4455V24.9719H5.09115C8.6687 23.3147 8.89803 19.8255 8.89803 17.8193C8.89803 15.8131 8.81833 15.0027 8.89803 13.8504C9.0815 8.44233 11.8793 7.00308 13.5764 6.52333Z" fill="#22C2FF"/>
<path d="M13.5764 43.4205L12.7049 45.9065C3.43997 43.3334 4.77009 36.5296 4.77009 31.3395C4.77009 27.152 1.57474 26.3385 0 26.4984V24.9719H5.09115C8.6687 26.6292 8.89803 30.1184 8.89803 32.1245C8.89803 34.1308 8.81833 34.9411 8.89803 36.0934C9.0815 41.5016 11.8793 42.9408 13.5764 43.4205Z" fill="#00ACEE"/>
<path d="M82.0972 43.4205L82.9686 45.9065C92.2336 43.3334 90.9035 36.5296 90.9035 31.3395C90.9035 27.152 94.0989 26.3385 95.6736 26.4984V24.9719H90.5824C87.0048 26.6292 86.7756 30.1184 86.7756 32.1245C86.7756 34.1308 86.8553 34.9411 86.7756 36.0934C86.5921 41.5016 83.7942 42.9408 82.0972 43.4205Z" fill="#22C2FF"/>
<path d="M82.0972 6.52333L82.9686 4.03735C92.2336 6.61056 90.9035 13.4143 90.9035 18.6044C90.9035 22.7919 94.0989 23.6053 95.6736 23.4455V24.9719H90.5824C87.0048 23.3147 86.7756 19.8255 86.7756 17.8193C86.7756 15.8131 86.8553 15.0027 86.7756 13.8504C86.5921 8.44233 83.7942 7.00308 82.0972 6.52333Z" fill="#00ACEE"/>
</svg>
